<svg xmlns="http://www.w3.org/2000/svg" viewBox="0 0 256 257">
  <path fill="#646CFF" d="M255.153 37.938 136.22 251.165c-2.47 4.42-8.78 4.45-11.29.06L.82 37.98c-2.73-4.73 1.31-10.52 6.74-9.65l121.07 19.8a6.7 6.7 0 0 0 2.16 0L248.4 28.3c5.43-.9 9.5 4.88 6.75 9.64Z"/>
  <path fill="#FFFFFF" d="M185.432 0 96.997 17.328c-1.454.286-2.65 1.364-3.06 2.79L77.6 78.022c-.66 2.33 1.46 4.43 3.84 3.76l24.65-6.97c2.31-.65 4.39 1.46 3.76 3.78l-18.3 67.17c-.69 2.52 2.08 4.67 4.42 3.41l15.23-8.2c2.18-1.17 4.84.7 4.28 3.1l-11.64 50.8c-.73 3.18 3.5 5.24 5.62 2.73l1.42-1.69 78.62-156.91c1.22-2.44-0.9-5.21-3.55-4.64l-27.63 5.93c-2.59.56-4.73-1.9-3.92-4.43l28.2-87.07c.83-2.56-1.38-5.03-4-4.42Z"/>
</svg>
